<?xml version="1.0" encoding="UTF-8" standalone="no"?>
<svg
   xmlns:dc="http://purl.org/dc/elements/1.1/"
   xmlns:cc="http://creativecommons.org/ns#"
   xmlns:rdf="http://www.w3.org/1999/02/22-rdf-syntax-ns#"
   xmlns:svg="http://www.w3.org/2000/svg"
   xmlns="http://www.w3.org/2000/svg"
   xmlns:sodipodi="http://sodipodi.sourceforge.net/DTD/sodipodi-0.dtd"
   xmlns:inkscape="http://www.inkscape.org/namespaces/inkscape"
   inkscape:version="1.0beta2 (370e190, 2020-02-01)"
   sodipodi:docname="T4_1_LaserCutCase6_35Jk.svg"
   viewBox="0 0 1233.4628 792.39305"
   height="209.65399mm"
   width="326.3537mm"
   xml:space="preserve"
   id="svg2"
   version="1.1"><metadata
     id="metadata8"><rdf:RDF><cc:Work
         rdf:about=""><dc:format>image/svg+xml</dc:format><dc:type
           rdf:resource="http://purl.org/dc/dcmitype/StillImage" /><dc:title></dc:title></cc:Work></rdf:RDF></metadata><defs
     id="defs6"><clipPath
       id="clipPath22"
       clipPathUnits="userSpaceOnUse"><path
         inkscape:connector-curvature="0"
         id="path20"
         d="M 0,637 H 964 V 0 H 0 Z" /></clipPath><clipPath
       id="clipPath122"
       clipPathUnits="userSpaceOnUse"><path
         inkscape:connector-curvature="0"
         id="path120"
         d="M 0,637 H 964 V 0 H 0 Z" /></clipPath><clipPath
       id="clipPath146"
       clipPathUnits="userSpaceOnUse"><path
         inkscape:connector-curvature="0"
         id="path144"
         d="M 0,637 H 964 V 0 H 0 Z" /></clipPath></defs><sodipodi:namedview
     inkscape:current-layer="g10"
     inkscape:window-maximized="1"
     inkscape:window-y="-8"
     inkscape:window-x="-8"
     inkscape:cy="220.14989"
     inkscape:cx="684.34644"
     inkscape:zoom="1.4688798"
     fit-margin-bottom="0"
     fit-margin-right="0"
     fit-margin-left="0"
     fit-margin-top="0"
     inkscape:document-units="mm"
     units="mm"
     showgrid="false"
     id="namedview4"
     inkscape:window-height="1147"
     inkscape:window-width="1920"
     inkscape:pageshadow="2"
     inkscape:pageopacity="0"
     guidetolerance="10"
     gridtolerance="10"
     objecttolerance="10"
     borderopacity="1"
     bordercolor="#666666"
     pagecolor="#ffffff" /><g
     transform="matrix(1.3333333,0,0,-1.3333333,-17.877333,823.49985)"
     inkscape:label="LaserCutSides"
     inkscape:groupmode="layer"
     id="g10"><g
       transform="translate(19.6831,527.4121)"
       id="g12"><path
         inkscape:connector-curvature="0"
         id="path14"
         style="fill:none;stroke:#ff0000;stroke-width:1;stroke-linecap:round;stroke-linejoin:round;stroke-miterlimit:10;stroke-dasharray:none;stroke-opacity:1"
         d="m 0,0 -0.503,-0.022 -0.5,-0.068 -0.491,-0.113 -0.481,-0.15 -0.466,-0.202 -0.447,-0.233 -0.425,-0.278 -0.399,-0.315 -0.372,-0.353 -0.341,-0.376 -0.305,-0.413 -0.272,-0.435 -0.232,-0.458 -0.194,-0.473 -0.151,-0.496 -0.108,-0.503 -0.067,-0.51 -0.021,-0.511 v -402.037 l 0.021,-0.516 0.067,-0.512 0.108,-0.502 0.151,-0.492 0.194,-0.478 0.232,-0.457 0.272,-0.434 0.305,-0.408 0.341,-0.381 0.372,-0.35 0.399,-0.312 0.425,-0.277 0.447,-0.239 0.466,-0.197 0.481,-0.156 0.491,-0.112 0.5,-0.066 0.503,-0.023 h 912.548 l 0.5,0.023 0.505,0.066 0.491,0.112 0.478,0.156 0.47,0.197 0.447,0.239 0.418,0.277 0.403,0.312 0.374,0.35 0.338,0.381 0.308,0.408 0.271,0.434 0.228,0.457 0.197,0.478 0.148,0.492 0.109,0.502 0.067,0.512 0.022,0.516 V -5.909 l -0.022,0.511 -0.067,0.51 -0.109,0.503 -0.148,0.496 -0.197,0.473 -0.228,0.458 -0.271,0.435 -0.308,0.413 -0.338,0.376 -0.374,0.353 -0.403,0.315 -0.418,0.278 -0.447,0.233 -0.47,0.202 -0.478,0.15 -0.491,0.113 -0.505,0.068 L 912.548,0 -0.503,-0.022" /></g><g
       transform="translate(908.042,310.5605)"
       id="g24"><path
         inkscape:connector-curvature="0"
         id="path26"
         style="fill:none;stroke:#ff0000;stroke-width:1;stroke-linecap:round;stroke-linejoin:round;stroke-miterlimit:10;stroke-dasharray:none;stroke-opacity:1"
         d="M 0,0 C 0,2.502 -2.033,4.535 -4.535,4.535 -7.037,4.535 -9.07,2.502 -9.07,0 c 0,-2.504 2.033,-4.536 4.535,-4.536 C -2.033,-4.536 0,-2.504 0,0 Z" /></g><g
       transform="translate(52.2725,310.8437)"
       id="g28"><path
         inkscape:connector-curvature="0"
         id="path30"
         style="fill:none;stroke:#ff0000;stroke-width:1;stroke-linecap:round;stroke-linejoin:round;stroke-miterlimit:10;stroke-dasharray:none;stroke-opacity:1"
         d="m 0,0 c 0,2.507 -2.038,4.543 -4.543,4.543 -2.514,0 -4.544,-2.036 -4.544,-4.543 0,-2.508 2.03,-4.545 4.544,-4.545 C -2.038,-4.545 0,-2.508 0,0 Z" /></g><g
       transform="translate(729.7432,147.5674)"
       id="g32"><path
         inkscape:connector-curvature="0"
         id="path34"
         style="fill:none;stroke:#ff0000;stroke-width:1;stroke-linecap:round;stroke-linejoin:round;stroke-miterlimit:10;stroke-dasharray:none;stroke-opacity:1"
         d="M 0,0 C 0,2.504 -2.033,4.535 -4.535,4.535 -7.039,4.535 -9.07,2.504 -9.07,0 c 0,-2.502 2.031,-4.535 4.535,-4.535 C -2.033,-4.535 0,-2.502 0,0 Z" /></g><g
       transform="translate(656.6084,493.1108)"
       id="g36"><path
         inkscape:connector-curvature="0"
         id="path38"
         style="fill:none;stroke:#ff0000;stroke-width:1;stroke-linecap:round;stroke-linejoin:round;stroke-miterlimit:10;stroke-dasharray:none;stroke-opacity:1"
         d="M 0,0 C 0,2.502 -2.031,4.535 -4.535,4.535 -7.037,4.535 -9.07,2.502 -9.07,0 c 0,-2.503 2.033,-4.535 4.535,-4.535 C -2.031,-4.535 0,-2.503 0,0 Z" /></g><g
       transform="translate(291.2256,146.7178)"
       id="g40"><path
         inkscape:connector-curvature="0"
         id="path42"
         style="fill:none;stroke:#ff0000;stroke-width:1;stroke-linecap:round;stroke-linejoin:round;stroke-miterlimit:10;stroke-dasharray:none;stroke-opacity:1"
         d="m 0,0 c 0,2.502 -2.037,4.535 -4.536,4.535 -2.505,0 -4.536,-2.033 -4.536,-4.535 0,-2.504 2.031,-4.535 4.536,-4.535 C -2.037,-4.535 0,-2.504 0,0 Z" /></g><g
       transform="translate(292.9248,493.1108)"
       id="g44"><path
         inkscape:connector-curvature="0"
         id="path46"
         style="fill:none;stroke:#ff0000;stroke-width:1;stroke-linecap:round;stroke-linejoin:round;stroke-miterlimit:10;stroke-dasharray:none;stroke-opacity:1"
         d="m 0,0 c 0,2.502 -2.037,4.535 -4.536,4.535 -2.505,0 -4.536,-2.033 -4.536,-4.535 0,-2.503 2.031,-4.535 4.536,-4.535 C -2.037,-4.535 0,-2.503 0,0 Z" /></g><g
       transform="translate(458.751,310.8437)"
       id="g48"><path
         inkscape:connector-curvature="0"
         id="path50"
         style="fill:none;stroke:#ff0000;stroke-width:1;stroke-linecap:round;stroke-linejoin:round;stroke-miterlimit:10;stroke-dasharray:none;stroke-opacity:1"
         d="M 0,0 C 0,2.502 -2.033,4.535 -4.535,4.535 -7.039,4.535 -9.07,2.502 -9.07,0 c 0,-2.503 2.031,-4.536 4.535,-4.536 C -2.033,-4.536 0,-2.503 0,0 Z" /></g><g
       transform="translate(29.7852,445.2505)"
       id="g52"><path
         inkscape:connector-curvature="0"
         id="path54"
         style="fill:none;stroke:#ff0000;stroke-width:1;stroke-linecap:butt;stroke-linejoin:miter;stroke-miterlimit:10;stroke-dasharray:none;stroke-opacity:1"
         d="m 0,0 c 0,-2.505 -2.031,-4.536 -4.535,-4.536 -2.505,0 -4.536,2.031 -4.536,4.536 0,2.505 2.031,4.535 4.536,4.535 C -2.031,4.535 0,2.505 0,0 Z" /></g><g
       transform="translate(29.7856,196.043)"
       id="g56"><path
         inkscape:connector-curvature="0"
         id="path58"
         style="fill:none;stroke:#ff0000;stroke-width:1;stroke-linecap:butt;stroke-linejoin:miter;stroke-miterlimit:10;stroke-dasharray:none;stroke-opacity:1"
         d="m 0,0 c 0,-2.505 -2.031,-4.536 -4.535,-4.536 -2.505,0 -4.536,2.031 -4.536,4.536 0,2.505 2.031,4.535 4.536,4.535 C -2.031,4.535 0,2.505 0,0 Z" /></g><g
       transform="translate(931.2021,445.2505)"
       id="g60"><path
         inkscape:connector-curvature="0"
         id="path62"
         style="fill:none;stroke:#ff0000;stroke-width:1;stroke-linecap:butt;stroke-linejoin:miter;stroke-miterlimit:10;stroke-dasharray:none;stroke-opacity:1"
         d="m 0,0 c 0,-2.505 -2.03,-4.536 -4.535,-4.536 -2.505,0 -4.536,2.031 -4.536,4.536 0,2.505 2.031,4.535 4.536,4.535 C -2.03,4.535 0,2.505 0,0 Z" /></g><g
       transform="translate(931.2031,196.043)"
       id="g64"><path
         inkscape:connector-curvature="0"
         id="path66"
         style="fill:none;stroke:#ff0000;stroke-width:1;stroke-linecap:butt;stroke-linejoin:miter;stroke-miterlimit:10;stroke-dasharray:none;stroke-opacity:1"
         d="m 0,0 c 0,-2.505 -2.031,-4.536 -4.535,-4.536 -2.506,0 -4.536,2.031 -4.536,4.536 0,2.505 2.03,4.535 4.536,4.535 C -2.031,4.535 0,2.505 0,0 Z" /></g><g
       transform="translate(938.002,26.6641)"
       id="g68"><path
         inkscape:connector-curvature="0"
         id="path70"
         style="fill:none;stroke:#ff0000;stroke-width:1;stroke-linecap:round;stroke-linejoin:round;stroke-miterlimit:10;stroke-dasharray:none;stroke-opacity:1"
         d="M 0,0 C 0,-1.566 -1.269,-2.834 -2.834,-2.834 H -921.26 c -1.565,0 -2.834,1.268 -2.834,2.834 v 83.055 c 0,1.566 1.269,2.835 2.834,2.835 H -2.834 C -1.269,85.89 0,84.621 0,83.055 Z" /></g><g
       transform="translate(13.9082,531.2349)"
       id="g72"><path
         inkscape:connector-curvature="0"
         id="path74"
         style="fill:none;stroke:#ff0000;stroke-width:1;stroke-linecap:round;stroke-linejoin:round;stroke-miterlimit:10;stroke-dasharray:none;stroke-opacity:1"
         d="M 0,0 C 0,-1.566 1.269,-2.835 2.834,-2.835 H 921.26 c 1.565,0 2.834,1.269 2.834,2.835 v 83.055 c 0,1.566 -1.269,2.835 -2.834,2.835 H 2.834 C 1.269,85.89 0,84.621 0,83.055 Z" /></g><g
       transform="translate(576.2324,555.5015)"
       id="g80"><path
         inkscape:connector-curvature="0"
         id="path82"
         style="fill:none;stroke:#ff0000;stroke-width:0.938;stroke-linecap:butt;stroke-linejoin:miter;stroke-miterlimit:10;stroke-dasharray:none;stroke-opacity:1"
         d="m 0,0 c 0,-1.565 1.27,-2.835 2.835,-2.835 h 34.017 c 1.564,0 2.834,1.27 2.834,2.835 v 31.181 c 0,1.566 -1.27,2.835 -2.834,2.835 H 2.835 C 1.27,34.016 0,32.747 0,31.181 Z" /></g><g
       transform="translate(494.4824,555.9844)"
       id="g84"><path
         inkscape:connector-curvature="0"
         id="path86"
         style="fill:none;stroke:#ff0000;stroke-width:0.938;stroke-linecap:butt;stroke-linejoin:miter;stroke-miterlimit:10;stroke-dasharray:none;stroke-opacity:1"
         d="M 0,0 C 0,-1.565 1.27,-2.835 2.834,-2.835 H 42.52 c 1.565,0 2.834,1.27 2.834,2.835 v 22.677 c 0,1.566 -1.269,2.835 -2.834,2.835 H 2.834 C 1.27,25.512 0,24.243 0,22.677 Z" /></g><g
       transform="translate(349.9395,583.6475)"
       id="g88"><path
         inkscape:connector-curvature="0"
         id="path90"
         style="fill:none;stroke:#ff0000;stroke-width:0.97;stroke-linecap:butt;stroke-linejoin:miter;stroke-miterlimit:10;stroke-dasharray:none;stroke-opacity:1"
         d="m 0,0 c 0,-12.133 9.836,-21.969 21.969,-21.969 12.133,0 21.969,9.836 21.969,21.969 0,12.133 -9.836,21.969 -21.969,21.969 C 9.836,21.969 0,12.133 0,0 Z" /></g><g
       transform="translate(283.1123,571.875)"
       id="g92"><path
         inkscape:connector-curvature="0"
         id="path94"
         style="fill:#ffffff;fill-opacity:1;fill-rule:nonzero;stroke:none"
         d="m 0,0 c 0,-2.662 2.157,-4.819 4.818,-4.819 2.662,0 4.82,2.157 4.82,4.819 0,2.661 -2.158,4.819 -4.82,4.819 C 2.157,4.819 0,2.661 0,0" /></g><g
       transform="translate(283.1123,571.875)"
       id="g96"><path
         inkscape:connector-curvature="0"
         id="path98"
         style="fill:none;stroke:#ff0000;stroke-width:1;stroke-linecap:butt;stroke-linejoin:miter;stroke-miterlimit:10;stroke-dasharray:none;stroke-opacity:1"
         d="m 0,0 c 0,-2.662 2.157,-4.819 4.818,-4.819 2.662,0 4.82,2.157 4.82,4.819 0,2.661 -2.158,4.819 -4.82,4.819 C 2.157,4.819 0,2.661 0,0 Z" /></g><g
       transform="translate(646.5264,571.875)"
       id="g100"><path
         inkscape:connector-curvature="0"
         id="path102"
         style="fill:#ffffff;fill-opacity:1;fill-rule:nonzero;stroke:none"
         d="M 0,0 C 0,-2.662 2.158,-4.819 4.818,-4.819 7.48,-4.819 9.639,-2.662 9.639,0 9.639,2.661 7.48,4.819 4.818,4.819 2.158,4.819 0,2.661 0,0" /></g><g
       transform="translate(646.5264,571.875)"
       id="g104"><path
         inkscape:connector-curvature="0"
         id="path106"
         style="fill:none;stroke:#ff0000;stroke-width:1;stroke-linecap:butt;stroke-linejoin:miter;stroke-miterlimit:10;stroke-dasharray:none;stroke-opacity:1"
         d="M 0,0 C 0,-2.662 2.158,-4.819 4.818,-4.819 7.48,-4.819 9.639,-2.662 9.639,0 9.639,2.661 7.48,4.819 4.818,4.819 2.158,4.819 0,2.661 0,0 Z" /></g><text
       id="text114"
       style="font-variant:normal;font-weight:normal;font-stretch:normal;font-size:10px;font-family:'Arial Rounded MT Bold';-inkscape-font-specification:ArialRoundedMTBold;writing-mode:lr-tb;fill:#000000;fill-opacity:1;fill-rule:nonzero;stroke:none"
       transform="matrix(-1,0,0,1,546.3848,545.2793)"><tspan
         id="tspan108"
         sodipodi:role="line"
         y="0"
         x="0 7.5999999 14.27 21.459999 23.959999 32.290001 35.419998 42.82 45.950001 48.450001 51.580002">USB MIDI In</tspan><tspan
         id="tspan110"
         sodipodi:role="line"
         y="0.27000001"
         x="157.64999 165.98 169.11 176.50999 179.64 182.14 185.27">MIDI In</tspan><tspan
         id="tspan112"
         sodipodi:role="line"
         y="0"
         x="-76.489998 -68.889999 -62.220001 -55.029999 -52.529999 -46.241001 -40.201 -32.202999 -26.263 -21.882999 -340.47 -333.28 -327.23999 -320.98999 -318.28 -312.23999 -309.73999 -301.82001 -295.78">USB Power Audio Out</tspan></text><g
       id="g116"><g
         clip-path="url(#clipPath122)"
         id="g118"><g
           transform="translate(291.5239,67.3281)"
           id="g124"><path
             inkscape:connector-curvature="0"
             id="path126"
             style="fill:none;stroke:#ff0000;stroke-width:0.709;stroke-linecap:butt;stroke-linejoin:miter;stroke-miterlimit:10;stroke-dasharray:none;stroke-opacity:1"
             d="m 0,0 c 0,-2.661 -2.157,-4.819 -4.819,-4.819 -2.662,0 -4.819,2.158 -4.819,4.819 0,2.661 2.157,4.819 4.819,4.819 C -2.157,4.819 0,2.661 0,0 Z" /></g><g
           transform="translate(730.0264,67.3281)"
           id="g128"><path
             inkscape:connector-curvature="0"
             id="path130"
             style="fill:none;stroke:#ff0000;stroke-width:0.709;stroke-linecap:butt;stroke-linejoin:miter;stroke-miterlimit:10;stroke-dasharray:none;stroke-opacity:1"
             d="m 0,0 c 0,-2.661 -2.157,-4.819 -4.819,-4.819 -2.662,0 -4.819,2.158 -4.819,4.819 0,2.661 2.157,4.819 4.819,4.819 C -2.157,4.819 0,2.661 0,0 Z" /></g><g
           transform="translate(208.9395,583.6475)"
           id="g132"><path
             inkscape:connector-curvature="0"
             id="path134"
             style="fill:none;stroke:#ff0000;stroke-width:0.97;stroke-linecap:butt;stroke-linejoin:miter;stroke-miterlimit:10;stroke-dasharray:none;stroke-opacity:1"
             d="m 0,0 c 0,-12.133 9.836,-21.969 21.969,-21.969 12.133,0 21.969,9.836 21.969,21.969 0,12.133 -9.836,21.969 -21.969,21.969 C 9.836,21.969 0,12.133 0,0 Z" /></g></g></g><text
       id="text138"
       style="font-variant:normal;font-weight:normal;font-stretch:normal;font-size:10px;font-family:'Arial Rounded MT Bold';-inkscape-font-specification:ArialRoundedMTBold;writing-mode:lr-tb;fill:#000000;fill-opacity:1;fill-rule:nonzero;stroke:none"
       transform="matrix(-1,0,0,1,256.3164,545.5508)"><tspan
         id="tspan136"
         sodipodi:role="line"
         y="0"
         x="0 8.3299999 11.46 18.860001 21.99 24.49 30.610001 36.650002 40.780998">MIDI Thru</tspan></text><g
       id="g140"><g
         clip-path="url(#clipPath146)"
         id="g142"><g
           transform="translate(845.1162,578.5244)"
           id="g148"><path
             inkscape:connector-curvature="0"
             id="path150"
             style="fill:none;stroke:#ff0000;stroke-width:1;stroke-linecap:butt;stroke-linejoin:miter;stroke-miterlimit:10;stroke-dasharray:none;stroke-opacity:1"
             d="m 0,0 c 0,-9.393 7.613,-17.008 17.009,-17.008 9.393,0 17.007,7.615 17.007,17.008 0,9.394 -7.614,17.008 -17.007,17.008 C 7.613,17.008 0,9.394 0,0 Z" /></g><g
           transform="translate(727.7852,388.7993)"
           id="g152"><path
             inkscape:connector-curvature="0"
             id="path154"
             style="fill:none;stroke:#ff0000;stroke-width:1;stroke-linecap:round;stroke-linejoin:round;stroke-miterlimit:10;stroke-dasharray:none;stroke-opacity:1"
             d="m 0,0 c 0,-1.565 -1.27,-2.834 -2.835,-2.834 h -3.4 c -1.566,0 -2.835,1.269 -2.835,2.834 v 3.401 c 0,1.566 1.269,2.835 2.835,2.835 h 3.4 C -1.27,6.236 0,4.967 0,3.401 Z" /></g></g></g></g></svg>
